<mxfile host="app.diagrams.net" modified="2024-01-13T17:25:17.147Z" agent="Mozilla/5.0 (Macintosh; Intel Mac OS X 10_15_7) AppleWebKit/537.36 (KHTML, like Gecko) Chrome/120.0.0.0 Safari/537.36" version="22.1.18" etag="FGjx0cbqAuXeRJvtLUS5" type="github">
  <diagram name="Page-1" id="jI_1t61T-fKsDiT3iOFc">
    <mxGraphModel>
      <root>
        <mxCell id="0" />
        <mxCell id="1" parent="0" />
      </root>
    </mxGraphModel>
  </diagram>
</mxfile>
